<?xml version='1.0' encoding='utf-8'?>
<svg xmlns="http://www.w3.org/2000/svg" version="1.1" viewBox="0 0 512 512" role="img" aria-labelledby="title">
<title id="title">Hollis owl silhouette for The Little AI Company</title><path d="M0 0 C0.660000000000025 0 1.3199999999999932 0 2 0 C6.91590065162103 14.74770195486316 -0.3926742936482128 35.33533072760625 -6.6796875 48.5234375 C-12.69814861233732 60.15357709494248 -21.191666799291625 69.64601548765785 -32 77 C-19.008168920066055 76.62667152069156 -7.299434495352273 74.22615391750935 5 70 C1.975995206438597 80.7257670021632 -6.4725997116161125 88.65998697465773 -16 94 C-19.274420700689575 95.5380587633963 -22.57835092918816 96.83005469915543 -26 98 C-27.19625000000002 98.4125 -28.392499999999984 98.82499999999999 -29.625 99.25 C-30.408749999999998 99.4975 -31.192499999999995 99.745 -32 100 C-28.788766308969855 102.14082246068676 -27.217243139427126 102.41386587795029 -23.45703125 102.8515625 C-22.383886718749977 102.98046875 -21.31074218750001 103.109375 -20.205078125 103.2421875 C-19.085527343750016 103.36851562499999 -17.965976562499975 103.49484375 -16.8125 103.625 C-16.246923828124977 103.69203125000001 -16.246923828124977 103.69203125000001 -13.384765625 104.03125 C-10.590604889277358 104.36136181687863 -7.795783107924649 104.68397422791836 -5 105 C-5 105.66 -5 106.32 -5 107 C-17.410434867990148 114.76873678744266 -28.765318190726475 115.35003315924445 -43 115 C-42.00999999999999 115.763125 -41.01999999999998 116.52625 -40 117.3125 C-33.230199966311034 123.10733897407047 -27.971136701385717 131.05772659722862 -24 139 C-24 139.99 -24 140.98 -24 142 C-25.980000000000018 141.34 -27.95999999999998 140.68 -30 140 C-29.370937500000025 140.750234375 -28.741874999999993 141.50046875 -28.09375 142.2734375 C-27.228936321902268 143.307098992166 -26.364371859116773 144.34096902010683 -25.5 145.375 C-25.042221679687486 145.92228759765624 -24.584443359374973 146.4695751953125 -24.11279296875 147.033447265625 C-21.394430098962914 150.29387309011537 -18.737905590300784 153.59143735588063 -16.125 156.9375 C-12.34832347069181 161.7125193003753 -8.243319603732175 166.14044470264594 -4.03564453125 170.534912109375 C-1.5224345927734362 173.19202689098455 0.628406319449482 175.57927841115713 2 179 C-3.291458469319025 179.18246408514892 -6.963064605979866 178.83292491415634 -12 177 C-11.310351562499989 177.825 -10.620703124999977 178.65 -9.91015625 179.5 C-4.67013983239417 185.8931197801501 0.06630342217601992 192.349276075783 4.125 199.5625 C4.3138073730468705 199.895400390625 4.3138073730468705 199.895400390625 5.269287109375 201.580078125 C7.1484643072983545 205.01977994140793 8.505588144695025 208.0971427785774 9 212 C1.6930375135478926 211.54034292384574 -4.997574476661725 210.1167027722638 -12 208 C-11.350312499999973 208.770859375 -10.700625000000002 209.54171874999997 -10.03125 210.3359375 C-9.613593750000007 210.83738281249998 -9.613593750000007 210.83738281249998 -7.5 213.375 C-7.082343750000007 213.87386718749997 -7.082343750000007 213.87386718749997 -4.96875 216.3984375 C-3 219 -3 219 -3 221 C-5.310000000000002 220.66999999999996 -7.6200000000000045 220.34000000000003 -10 220 C-9.67386718749998 220.5710546875 -9.347734375000016 221.14210937500002 -9.01171875 221.73046875 C-2.4872843416493424 233.83627772596628 0.08914859360908167 247.44760616997303 -3 261 C-5.607370610060684 259.74846210717084 -8.082105063995073 258.3569308727826 -10.5625 256.875 C-14 255 -14 255 -17 255 C-16.78343749999999 255.78761718750002 -16.566874999999982 256.575234375 -16.34375 257.38671875 C-14.336312298062182 265.2398893895253 -13.054152397163477 272.88045109772804 -14 281 C-14.660000000000025 281.66 -15.319999999999993 282.32 -16 283 C-17.485000000000014 282.01 -17.485000000000014 282.01 -25 277 C-24.094174068204552 279.400438719258 -23.17591308671126 281.79481594179185 -22.25 284.1875 C-21.997343750000027 284.86103515625 -21.744687499999998 285.5345703125 -21.484375 286.228515625 C-18.757235892693586 293.21680958747265 -15.283911560639297 296.85833101685137 -9 301 C-9 301.66 -9 302.32 -9 303 C-15.693645247195548 306.8249401412546 -22.440013393054414 306.4938684718105 -30 306 C-30.99000000000001 305.67 -31.980000000000018 305.34 -33 305 C-30.389656109469115 311.8646490397791 -27.990590852518892 317.5816442172652 -23 323 C-23 323.66 -23 324.32 -23 325 C-32.73747990353928 328.2458266345131 -43.889800595587985 326.1147275255577 -53 322 C-54.683407728817485 321.02844650361635 -56.3554669115785 320.03599647628 -58 319 C-61.033623910336246 327.9744707347447 -61.033623910336246 327.9744707347447 -60.875 332.8125 C-61 336.00000000000006 -61 336.00000000000006 -63.3125 338.875 C-66.71527369570595 341.5655652477675 -69.15329740087225 342.1514786467651 -73.375 342.1875 C-74.12523437499999 342.2016796875 -74.87546874999998 342.215859375 -75.6484375 342.23046875 C-78.3777330315221 341.9629796530568 -80.50704369261473 341.1143426603683 -83 340 C-81.55360690262484 346.25674589849405 -80.40479342339563 351.1395382914255 -76 356 C-76 356.99 -76 357.98 -76 359 C-80.88692064365426 361.4434603218271 -87.82000837479387 360.64375591616823 -92.91015625 359.140625 C-95.31385639066019 358.1635686836197 -97.65465136434801 357.1081438525187 -100 356 C-103 355 -103 355 -104.83203125 355.70703125 C-105.48558593749999 356.0718359375 -106.13914062499998 356.436640625 -106.8125 356.8125 C-112.27651138719858 359.69933599798975 -116.73317813503854 361.2984200888077 -123 361 C-122.505 361.94875 -122.00999999999999 362.8975 -121.5 363.875 C-120 367 -120 367 -120 369 C-125.66667204114515 371.8333360205726 -133.71582976045948 370.32251976556455 -139.5 368.4375 C-140.2734375 368.1474609375 -141.046875 367.857421875 -141.84375 367.55859375 C-144.36204413739802 366.906209580348 -145.59142823376072 367.058377293034 -148 368 C-149.48509905681857 369.25910572208534 -150.9696229908859 370.51894167872274 -152.4453125 371.7890625 C-157.50277893432735 375.72829514985295 -163.8986916571797 375.593057953794 -170 375 C-175.93738444301243 373.7081100913863 -181.48638764790257 371.51708389987056 -187 369 C-187.095390625 369.6045703125 -187.19078125 370.209140625 -187.2890625 370.83203125 C-188.158340293901 373.48285089623664 -189.08385303402656 374.1552350459629 -191.375 375.6875 C-191.6779296875 375.89568359375 -191.6779296875 375.89568359375 -193.2109375 376.94921875 C-198.18438308026214 379.8703035995426 -203.79516676197443 379.6398821016701 -209.30859375 378.5390625 C-213.65703898390802 377.25789146054706 -216.7414778690992 375.5640931917517 -220.25 372.6875 C-222.23828124999997 371.11718750000006 -222.23828124999997 371.11718750000006 -224 370 C-226.43749999999997 370.3125 -226.43749999999997 370.3125 -229 372 C-230.5151373734662 372.86422998197713 -232.03654859902565 373.7175106248676 -233.5625 374.5625 C-234.3062890625 374.9969140625 -235.050078125 375.431328125 -235.81640625 375.87890625 C-241.0263517336115 378.5537798703873 -246.7842983094063 378.97157489502337 -252.37890625 377.28125 C-257.0865413105331 375.3578669769156 -260.2887238121193 373.4794997886724 -263 369 C-263 368.34 -263 367.68 -263 367 C-264.02738281250004 367.3609375 -265.05476562499996 367.721875 -266.11328125 368.09375 C-277.06819287947474 371.81831387886643 -286.54052573790796 374.31850383413985 -297.62890625 369.421875 C-301.7439890923097 366.9541811703447 -304.8715701547519 363.6003159112911 -308 360 C-308.86625000000004 360.28875 -309.73249999999996 360.5775 -310.625 360.875 C-311.73875 361.24625 -312.85249999999996 361.6175 -314 362 C-314.9113671875 362.3467578125 -315.822734375 362.693515625 -316.76171875 363.05078125 C-320.3655071944399 364.10713902080687 -323.4369792071015 364.30044044761127 -327.1875 364.3125 C-328.3979296875 364.3292578125 -329.608359375 364.346015625 -330.85546875 364.36328125 C-334 364 -334 364 -335.92578125 362.48046875 C-336.2802734375 361.9919140625 -336.634765625 361.503359375 -337 361 C-336.505 360.236875 -336.01 359.47375 -335.5 358.6875 C-334 356 -334 356 -334 353 C-336.30078124999983 351.0976562500001 -336.30078124999983 351.0976562500001 -339.3125 349.0625 C-342.83839050702954 346.6704252638584 -345.75474703470195 344.6705671343951 -348 341 C-348 340.34 -348 339.68 -348 339 C-348.868828125 339.554296875 -349.73765625 340.10859375 -350.6328125 340.6796875 C-351.7966668108267 341.41178940519745 -352.96074109614597 342.1435416886656 -354.125 342.875 C-354.4098828125 343.05740234375 -354.4098828125 343.05740234375 -355.8515625 343.98046875 C-361.0533901888788 347.23161105554925 -365.68788023591225 349.3124884776996 -371.875 349.125 C-372.656171875 349.106953125 -373.43734374999997 349.08890625 -374.2421875 349.0703125 C-374.5322265625 349.0587109375 -374.5322265625 349.0587109375 -376 349 C-375.7834375 348.466328125 -375.566875 347.93265625 -375.34375 347.3828125 C-371.0716274217535 335.95092893413664 -373.16856023895366 328.0087805983842 -378 317 C-381.7365139972726 317 -383.64064296141044 318.20552936786083 -386.9375 319.9375 C-392.81871751730705 323.0202199626033 -396.61390270125503 324.13463149237765 -403.25 324.0625 C-404.32765625 324.0534765625 -405.40531250000004 324.044453125 -406.515625 324.03515625 C-407.33546875 324.0235546875 -408.1553125 324.011953125 -409 324 C-409.33 323.34 -409.65999999999997 322.68 -410 322 C-409.29213686358526 320.3483193483656 -408.5790173861067 318.69863919876707 -407.8359375 317.0625 C-405.6138433445735 311.5799499342748 -404.6973459850649 305.90175329123485 -405 300 C-405.291328125 300.14437499999997 -405.291328125 300.14437499999997 -406.765625 300.875 C-413.67356894695365 304.00312556088465 -419.4762157119595 304.46538871884786 -427 304 C-427 300.6357834581078 -426.59859865692874 300.2069562975615 -424.6875 297.625 C-417.84188713333083 286.900852931252 -418.37668261834926 273.3006358474747 -418 261 C-418.698671875 261.5053125 -419.39734375 262.010625 -420.1171875 262.53125 C-421.027265625 263.1809375 -421.93734374999997 263.830625 -422.875 264.5 C-423.779921875 265.1496875 -424.68484375 265.799375 -425.6171875 266.46875 C-428 268 -428 268 -430 268 C-434.0905837382259 250.46892683617466 -429.90893920372605 232.88039966597955 -422 217 C-423.04800781250003 217.36093749999998 -424.096015625 217.721875 -425.17578125 218.09375 C-426.5546065082935 218.56273818309302 -427.9335172497182 219.03147509861867 -429.3125 219.5 C-430.00279296875 219.7384765625 -430.6930859375 219.97695312500002 -431.404296875 220.22265625 C-434.38931489255685 221.2320826327487 -436.8265891446602 222 -440 222 C-439.39937745637417 211.58920924381937 -434.81352697740846 202.9143382368893 -429.3125 194.25 C-428.91998046875 193.6291552734375 -428.5274609375 193.008310546875 -428.123046875 192.36865234375 C-427.14047135632524 190.87238093213642 -426.07673642089094 189.43000750593765 -425 188 C-424.34000000000003 188 -423.68 188 -423 188 C-422.690625 187.38125 -422.38125 186.7625 -422.0625 186.125 C-421.375 184.75 -420.6875 183.375 -420 182 C-421.155 182.33 -422.31 182.66 -423.5 183 C-427.7750058655311 184.08401934447394 -431.6036145328172 184.1570137666851 -436 184 C-435.4790556708736 179.91616856274138 -433.4364521775002 178.18815813540527 -430.5 175.4375 C-425.1938241509154 170.28185396223697 -420.5714368564762 164.80797305535913 -416 159 C-415.517568359375 158.3891455078125 -415.03513671875 157.778291015625 -414.5380859375 157.14892578125 C-411.3471147205062 153.10830556364795 -408.1691774043101 149.0577318167335 -405 145 C-406.98 145.33 -408.96 145.66 -411 146 C-406.570202154031 135.73800599501644 -399.9374498922754 127.78373167253068 -392 120 C-393.1717578125 119.90203125 -394.343515625 119.80406249999999 -395.55078125 119.703125 C-406.5173612961939 118.69512003888963 -416.65530429653086 117.33454593704192 -426 111 C-426 110.34 -426 109.68 -426 109 C-425.419921875 108.94521484375 -425.419921875 108.94521484375 -422.484375 108.66796875 C-413.4324345518825 107.76568529697221 -404.76047201218034 106.57660941534715 -396 104 C-397.16015625 103.780859375 -398.3203125 103.56171875000001 -399.515625 103.3359375 C-414.16411651417565 100.42541220397453 -427.84338624924084 96.10519788409476 -436.88671875 83.3359375 C-441 76.68181818181819 -441 76.68181818181819 -441 74 C-440.4633471679688 74.11069824218748 -439.9266943359375 74.22139648437502 -439.373779296875 74.33544921875 C-426.6154049260914 76.93886736724198 -413.972534059095 78.87324275601003 -401 80 C-401 79.34 -401 78.68 -401 78 C-401.71671875 77.76023437499998 -402.43343749999997 77.52046875000002 -403.171875 77.2734375 C-418.02334352338437 70.58617404886286 -428.1800624922476 52.53606876936263 -434 38 C-437.04569210500335 29.147548390573377 -439.16678390248364 20.010551223530626 -439.0625 10.625 C-439.0534765625 9.565390624999992 -439.044453125 8.505781249999998 -439.03515625 7.4140625 C-439.02935546875 7.0157421874999955 -439.02935546875 7.0157421874999955 -439 5 C-436 5 -436 5 -433.4609375 7.421875 C-432.4300852065139 8.529200015554807 -431.4016146505476 9.63874507859802 -430.375 10.75 C-402.7063881492733 39.35426539157248 -365.55705615863815 46.192364066086384 -327.8125 52 C-308.1261180007076 55.02908157211634 -289.03111843349177 59.068550620861316 -270 65 C-271.0041796875 64.5153125 -272.008359375 64.03062499999999 -273.04296875 63.53125 C-297.11005860062863 51.787456279275574 -297.11005860062863 51.787456279275574 -303 45 C-303 44.34 -303 43.68000000000001 -303 43 C-299.83901362095827 43.43104359714205 -296.6979850573424 43.86331592777566 -293.56640625 44.4765625 C-287.92859191415096 45.54814706879968 -282.4525777248863 46.10977682950673 -276.726806640625 46.291748046875 C-262.9255852653805 46.733356049967654 -251.61704762600533 49.0118533023539 -240 57 C-239.01 57.66 -238.02 58.31999999999999 -237 59 C-237.0348046875 58.3335546875 -237.069609375 57.667109374999995 -237.10546875 56.98046875 C-237.47440102091656 44.41920333545991 -234.00684476333578 32.98231528045869 -225.71484375 23.34375 C-219.80181498829037 17.267271662763463 -219.80181498829037 17.267271662763463 -216 16 C-216.193359375 16.6174609375 -216.38671875 17.234921874999998 -216.5859375 17.87109375 C-219.55265825038015 27.52027955692951 -221.34159566093982 35.847017855400026 -221 46 C-219.27054947901442 44.27054947901442 -217.8309224640327 42.28965842131362 -216.3125 40.375 C-215.5803125 39.464921875 -214.84812499999998 38.55484375 -214.09375 37.6171875 C-212.90921333226504 36.136516665331285 -211.7345000295761 34.64747503927049 -210.59375 33.1328125 C-199.54764996804386 19.055770386104655 -181.21080015569157 9.113858848547281 -163.77734375 6.3125 C-157.45158022247045 5.60074039071398 -151.71757875813142 4.9596822128378335 -146 8 C-146.52843505859374 8.266271972656256 -147.0568701171875 8.532543945312497 -147.601318359375 8.806884765625 C-167.33878874480018 18.810159373659758 -167.33878874480018 18.810159373659758 -174 25 C-174.95003906250003 25.859804687500002 -175.900078125 26.719609375000005 -176.87890625 27.60546875 C-186.75389244325288 36.82523521317262 -195.11863196190677 47.86306202491532 -199 61 C-199 61.66 -199 62.31999999999999 -199 63 C-198.610703125 62.32195312499999 -198.22140624999997 61.64390625 -197.8203125 60.9453125 C-186.7939102008272 42.601850610592706 -169.7225477007737 31.459074766652748 -149.4375 25.5625 C-135.8896455916547 22.225456670839748 -120.19836738497503 22.322097635705063 -107 27 C-107 27.989999999999995 -107 28.980000000000004 -107 30 C-107.61818603515627 30.120043945312503 -108.23637207031248 30.240087890625006 -108.873291015625 30.36376953125 C-126.66500617074848 33.874227667657664 -143.12355908593884 38.14922116843749 -158 49 C-158.66000000000003 49.99000000000001 -159.32 50.97999999999999 -160 52 C-159.2265625 51.795039062499995 -158.453125 51.59007812499999 -157.65625 51.37890625 C-156.6146875 51.109492187499995 -155.573125 50.84007812499999 -154.5 50.5625 C-153.4790625 50.29566406250001 -152.458125 50.02882812499999 -151.40625 49.75390625 C-144.2157102846224 48.162422115747844 -137.33711493707307 47.8781187138795 -130.0078125 47.97265625 C-128.06510605298058 47.98531882706335 -126.12239761289152 47.99767854852492 -124.1796875 48.009765625 C-121.16790274725611 48.034352616596124 -118.1562271899972 48.06214956380819 -115.14453125 48.095947265625 C-105.08550877024976 48.20142083356822 -95.10856254538476 48.23406427992862 -85.09765625 47.13671875 C-84.40104888916017 47.06058853149415 -83.70444152832033 46.98445831298828 -82.98672485351563 46.90602111816406 C-75.06343728037365 45.91850685600966 -67.5202992369754 43.619552709541495 -60 41 C-59.35965820312498 40.77828124999999 -58.719316406250016 40.5565625 -58.0595703125 40.328125 C-36.35671722392766 32.63540839776519 -15.94177709062592 19.396951075699718 -1.375 1.43359375 C-1.1481249999999932 1.1970507812499989 -1.1481249999999932 1.1970507812499989 0 0 Z " fill="#2B2118" transform="translate(472,66)" />
</svg>